<svg width="24" height="24" viewBox="0 0 24 24" fill="none" xmlns="http://www.w3.org/2000/svg">
<path d="M12.015 7C16.766 7 20.078 10.012 21.519 11.636C20.118 13.473 16.806 17 12.015 17C7.595 17 4.085 13.464 2.537 11.593C4.03 9.946 7.354 7 12.015 7V7ZM12.015 5C4.446 5 0 11.551 0 11.551C0 11.551 4.835 19 12.015 19C19.748 19 24 11.551 24 11.551C24 11.551 19.709 5 12.015 5ZM12 8C9.79 8 8 9.791 8 12C8 14.209 9.79 16 12 16C14.209 16 16 14.209 16 12C16 9.791 14.209 8 12 8ZM11.996 11.999C11.432 12.563 10.517 12.563 9.952 11.999C9.387 11.435 9.387 10.519 9.952 9.955C10.516 9.391 11.431 9.391 11.996 9.955C12.561 10.519 12.561 11.434 11.996 11.999Z" fill="#FFA216"/>
</svg>
