<svg width="85" height="85" viewBox="0 0 85 85" fill="none" xmlns="http://www.w3.org/2000/svg">
<path d="M82.069 83.3399H2.93103V1.16204C2.93103 0.703541 3.25908 0.331924 3.66382 0.331924H81.3362C81.7409 0.331924 82.069 0.703541 82.069 1.16204V83.3399Z" fill="#FFD782"/>
<path d="M82.069 68.3992H2.93103V81.6803H82.069V68.3992Z" fill="#FFAF5F"/>
<path d="M82.0689 30.072C81.7686 30.1566 81.4596 30.2149 81.1363 30.2149C79.0024 30.2149 77.2726 28.2553 77.2726 25.838C77.2726 28.255 75.5427 30.2149 73.4089 30.2149C71.2751 30.2149 69.5452 28.2553 69.5452 25.838C69.5452 28.255 67.8155 30.2149 65.6815 30.2149C63.5478 30.2149 61.8178 28.2553 61.8178 25.838C61.8178 28.255 60.088 30.2149 57.9542 30.2149C55.8204 30.2149 54.0905 28.2553 54.0905 25.838C54.0905 28.255 52.3606 30.2149 50.2268 30.2149C48.093 30.2149 46.3631 28.2553 46.3631 25.838C46.3631 28.255 44.6334 30.2149 42.4995 30.2149C40.3654 30.2149 38.6358 28.2553 38.6358 25.838C38.6358 28.255 36.9059 30.2149 34.7721 30.2149C32.6383 30.2149 30.9083 28.2553 30.9083 25.838C30.9083 28.255 29.1787 30.2149 27.0447 30.2149C24.9109 30.2149 23.181 28.2553 23.181 25.838C23.181 28.255 21.4512 30.2149 19.3173 30.2149C17.1836 30.2149 15.4536 28.2553 15.4536 25.838C15.4536 28.255 13.7238 30.2149 11.59 30.2149C9.45621 30.2149 7.72629 28.2553 7.72629 25.838C7.72629 28.255 5.99657 30.2149 3.86261 30.2149C3.53921 30.2149 3.23025 30.1566 2.92993 30.072V33.4285C3.23773 33.4768 3.5432 33.5354 3.86261 33.5354C5.29682 33.5354 6.6286 33.0295 7.72629 32.1668C8.82432 33.0295 10.1559 33.5351 11.5903 33.5351C13.0245 33.5351 14.3563 33.0293 15.454 32.1666C16.5517 33.0293 17.8835 33.5351 19.3177 33.5351C20.7519 33.5351 22.0836 33.0293 23.1813 32.1666C24.279 33.0293 25.6108 33.5351 27.045 33.5351C28.4792 33.5351 29.811 33.0293 30.9087 32.1666C32.0064 33.0293 33.3382 33.5351 34.7724 33.5351C36.2066 33.5351 37.5383 33.0293 38.6361 32.1666C39.7336 33.0295 41.0654 33.5351 42.4996 33.5351C43.9338 33.5351 45.2656 33.0293 46.3633 32.1666C47.461 33.0293 48.7928 33.5351 50.227 33.5351C51.6612 33.5351 52.993 33.0293 54.0907 32.1666C55.1883 33.0293 56.5201 33.5351 57.9543 33.5351C59.3885 33.5351 60.7203 33.0293 61.818 32.1666C62.9157 33.0293 64.2475 33.5351 65.6817 33.5351C67.1159 33.5351 68.4477 33.0293 69.5454 32.1666C70.643 33.0293 71.9748 33.5351 73.409 33.5351C74.8434 33.5351 76.175 33.0293 77.2727 32.1666C78.3705 33.0293 79.7022 33.5351 81.1365 33.5351C81.4556 33.5351 81.7613 33.4768 82.0691 33.4284V30.072H82.0689Z" fill="#FFAF5F"/>
<path d="M51.2928 40.1763H10.2587V73.3791H51.2928V40.1763Z" fill="#B4E1FA"/>
<path d="M74.7419 40.1763H57.1559V73.3791H74.7419V40.1763Z" fill="#B4E1FA"/>
<path d="M74.7419 40.1763H57.1559V45.1568H74.7419V40.1763Z" fill="#A0D2F0"/>
<path d="M74.7414 55.6707L64.4828 40.1758H61.5518L74.7414 60.0978V55.6707Z" fill="#DAF0FD"/>
<path d="M58.6207 40.1758H57.1553V46.8165L74.7414 73.3789V64.5246L58.6207 40.1758Z" fill="#A0D2F0"/>
<path d="M67.7802 45.1562L64.4828 40.1758H61.5518L64.8492 45.1562H67.7802Z" fill="#B4E1FA"/>
<path d="M46.8965 73.3789H43.9656L21.9828 40.1758H24.9138L46.8965 73.3789Z" fill="#DAF0FD"/>
<path d="M41.0344 73.3789H35.1724L13.1896 40.1758H19.0518L41.0344 73.3789Z" fill="#A0D2F0"/>
<path d="M51.2928 40.1762H10.2587V45.1568H51.2928V40.1762Z" fill="#A0D2F0"/>
<path d="M28.2112 45.1562L24.9138 40.1758H21.9828L25.2802 45.1562H28.2112Z" fill="#B4E1FA"/>
<path d="M34.7726 30.2149C32.6389 30.2149 30.9089 28.2552 30.9089 25.838V21.914H38.6363V25.838C38.6363 28.2552 36.9065 30.2149 34.7726 30.2149Z" fill="#E08F14"/>
<path d="M50.2273 30.2149C48.0936 30.2149 46.3636 28.2552 46.3636 25.838V21.914H54.091V25.838C54.0909 28.2552 52.3612 30.2149 50.2273 30.2149Z" fill="#E08F14"/>
<path d="M19.3183 30.2149C17.1844 30.2149 15.4546 28.2552 15.4546 25.838V21.914H23.1819V25.838C23.1818 28.2552 21.452 30.2149 19.3183 30.2149Z" fill="#E08F14"/>
<path d="M3.86368 30.2149C1.72989 30.2149 0 28.2552 0 25.838V21.914H7.72737V25.838C7.72737 28.2552 5.99748 30.2149 3.86368 30.2149Z" fill="#E08F14"/>
<path d="M65.6818 30.2149C63.5479 30.2149 61.8181 28.2552 61.8181 25.838V21.914H69.5455V25.838C69.5455 28.2552 67.8157 30.2149 65.6818 30.2149Z" fill="#E08F14"/>
<path d="M27.0454 30.2149C24.9117 30.2149 23.1818 28.2552 23.1818 25.838V21.914H30.9091V25.838C30.9091 28.2552 29.1794 30.2149 27.0454 30.2149Z" fill="#C7CFE2"/>
<path d="M57.9546 30.2149C55.8208 30.2149 54.0909 28.2552 54.0909 25.838V21.914H61.8183V25.838C61.8183 28.2552 60.0884 30.2149 57.9546 30.2149Z" fill="#C7CFE2"/>
<path d="M81.1363 30.2149C79.0025 30.2149 77.2726 28.2552 77.2726 25.838V21.914H84.9999V25.838C84.9999 28.2552 83.2701 30.2149 81.1363 30.2149Z" fill="#E08F14"/>
<path d="M73.4091 30.2149C71.2753 30.2149 69.5454 28.2552 69.5454 25.838V21.914H77.2728V25.838C77.2726 28.2552 75.5428 30.2149 73.4091 30.2149Z" fill="#C7CFE2"/>
<path d="M11.5908 30.2149C9.45708 30.2149 7.72717 28.2552 7.72717 25.838V21.914H15.4545V25.838C15.4545 28.2552 13.7247 30.2149 11.5908 30.2149Z" fill="#C7CFE2"/>
<path d="M42.5 30.2149C40.3662 30.2149 38.6364 28.2552 38.6364 25.838V21.914H46.3637V25.838C46.3637 28.2552 44.6338 30.2149 42.5 30.2149Z" fill="#C7CFE2"/>
<path d="M38.6363 21.914H30.9091L31.7085 0H38.9029L38.6363 21.914Z" fill="#FFA216"/>
<path d="M54.0909 21.914H46.3637L46.097 0H53.2915L54.0909 21.914Z" fill="#FFA216"/>
<path d="M23.1818 21.914H15.4546L17.3197 0H24.5141L23.1818 21.914Z" fill="#FFA216"/>
<path d="M7.72737 21.914H0L2.931 0H10.1255L7.72737 21.914Z" fill="#FFA216"/>
<path d="M69.5454 21.914H61.8183L60.486 0H67.6803L69.5454 21.914Z" fill="#FFA216"/>
<path d="M30.9091 21.914H23.1818L24.5141 0H31.7085L30.9091 21.914Z" fill="#EFF2FA"/>
<path d="M61.8183 21.914H54.0909L53.2915 0H60.486L61.8183 21.914Z" fill="#EFF2FA"/>
<path d="M85 22.1465H77.2158L74.8 0H82.0475L85 22.1465Z" fill="#FFA216"/>
<path d="M77.2727 21.914H69.5455L67.6803 0H74.8746L77.2727 21.914Z" fill="#EFF2FA"/>
<path d="M15.4546 21.914H7.72742L10.1256 0H17.3198L15.4546 21.914Z" fill="#EFF2FA"/>
<path d="M46.3638 21.914H38.6365L38.9031 0H46.0972L46.3638 21.914Z" fill="#EFF2FA"/>
<path d="M49.8276 41.836V71.7189H11.7242V41.836H49.8276ZM51.2931 38.5157H10.2585C9.44925 38.5157 8.79297 39.2591 8.79297 40.1759V73.3791C8.79297 74.296 9.44925 75.0394 10.2585 75.0394H51.293C52.1023 75.0394 52.7585 74.296 52.7585 73.3791V40.1759C52.7585 39.2591 52.1025 38.5157 51.2931 38.5157Z" fill="#8F96AC"/>
<path d="M74.7414 38.5157H57.1551C56.3459 38.5157 55.6896 39.2591 55.6896 40.1759V81.6799H76.2068V40.1759C76.2068 39.2591 75.5507 38.5157 74.7414 38.5157ZM73.2758 71.7189H58.6206V41.836H73.2758V71.7189Z" fill="#8F96AC"/>
<path d="M84.2672 85H0.732793C0.328047 85 0 84.6284 0 84.1699V82.5097C0 82.0512 0.328047 81.6796 0.732793 81.6796H84.2672C84.672 81.6796 85 82.0512 85 82.5097V84.1699C85 84.6284 84.672 85 84.2672 85Z" fill="#8F96AC"/>
</svg>
