<svg width="80" height="80" viewBox="0 0 80 80" fill="none" xmlns="http://www.w3.org/2000/svg">
<path d="M77.2414 78.4376H2.75854V1.09369C2.75854 0.662165 3.0673 0.312408 3.44823 0.312408H76.5516C76.9326 0.312408 77.2414 0.662165 77.2414 1.09369V78.4376Z" fill="#FFD782"/>
<path d="M77.2414 64.3757H2.75854V76.8756H77.2414V64.3757Z" fill="#FFAF5F"/>
<path d="M77.2413 28.303C76.9587 28.3826 76.6679 28.4375 76.3636 28.4375C74.3552 28.4375 72.7272 26.5932 72.7272 24.3182C72.7272 26.593 71.099 28.4375 69.0907 28.4375C67.0824 28.4375 65.4543 26.5932 65.4543 24.3182C65.4543 26.593 63.8264 28.4375 61.8179 28.4375C59.8096 28.4375 58.1815 26.5932 58.1815 24.3182C58.1815 26.593 56.5534 28.4375 54.5451 28.4375C52.5368 28.4375 50.9087 26.5932 50.9087 24.3182C50.9087 26.593 49.2805 28.4375 47.2723 28.4375C45.264 28.4375 43.6359 26.5932 43.6359 24.3182C43.6359 26.593 42.0079 28.4375 39.9995 28.4375C37.991 28.4375 36.3631 26.5932 36.3631 24.3182C36.3631 26.593 34.7349 28.4375 32.7267 28.4375C30.7184 28.4375 29.0902 26.5932 29.0902 24.3182C29.0902 26.593 27.4623 28.4375 25.4538 28.4375C23.4456 28.4375 21.8174 26.5932 21.8174 24.3182C21.8174 26.593 20.1893 28.4375 18.181 28.4375C16.1728 28.4375 14.5446 26.5932 14.5446 24.3182C14.5446 26.593 12.9165 28.4375 10.9082 28.4375C8.89995 28.4375 7.27179 26.5932 7.27179 24.3182C7.27179 26.593 5.64382 28.4375 3.63538 28.4375C3.33101 28.4375 3.04022 28.3826 2.75757 28.303V31.4622C3.04726 31.5076 3.33476 31.5627 3.63538 31.5627C4.98522 31.5627 6.23866 31.0866 7.27179 30.2746C8.30523 31.0866 9.55851 31.5625 10.9085 31.5625C12.2584 31.5625 13.5118 31.0864 14.5449 30.2745C15.578 31.0864 16.8315 31.5625 18.1813 31.5625C19.5312 31.5625 20.7846 31.0864 21.8177 30.2745C22.8508 31.0864 24.1043 31.5625 25.4541 31.5625C26.804 31.5625 28.0574 31.0864 29.0905 30.2745C30.1236 31.0864 31.3771 31.5625 32.7269 31.5625C34.0768 31.5625 35.3302 31.0864 36.3634 30.2745C37.3964 31.0866 38.6498 31.5625 39.9996 31.5625C41.3495 31.5625 42.6029 31.0864 43.636 30.2745C44.6692 31.0864 45.9226 31.5625 47.2724 31.5625C48.6223 31.5625 49.8757 31.0864 50.9088 30.2745C51.942 31.0864 53.1954 31.5625 54.5452 31.5625C55.8951 31.5625 57.1485 31.0864 58.1816 30.2745C59.2148 31.0864 60.4682 31.5625 61.818 31.5625C63.1679 31.5625 64.4213 31.0864 65.4544 30.2745C66.4876 31.0864 67.741 31.5625 69.0908 31.5625C70.4408 31.5625 71.6941 31.0864 72.7272 30.2745C73.7604 31.0864 75.0138 31.5625 76.3637 31.5625C76.6641 31.5625 76.9518 31.5076 77.2415 31.462V28.303H77.2413Z" fill="#FFAF5F"/>
<path d="M48.2755 37.813H9.65515V69.0627H48.2755V37.813Z" fill="#B4E1FA"/>
<path d="M70.3452 37.813H53.7937V69.0627H70.3452V37.813Z" fill="#B4E1FA"/>
<path d="M70.3452 37.813H53.7937V42.5005H70.3452V37.813Z" fill="#A0D2F0"/>
<path d="M70.3448 52.396L60.6897 37.8126H57.931L70.3448 56.5626V52.396Z" fill="#DAF0FD"/>
<path d="M55.1724 37.8126H53.7932V44.0626L70.3449 69.0625V60.729L55.1724 37.8126Z" fill="#A0D2F0"/>
<path d="M63.7931 42.5L60.6897 37.8126H57.931L61.0345 42.5H63.7931Z" fill="#B4E1FA"/>
<path d="M44.1379 69.0625H41.3794L20.6897 37.8126H23.4483L44.1379 69.0625Z" fill="#DAF0FD"/>
<path d="M38.6207 69.0625H33.1035L12.4138 37.8126H17.9312L38.6207 69.0625Z" fill="#A0D2F0"/>
<path d="M48.2755 37.8129H9.65515V42.5005H48.2755V37.8129Z" fill="#A0D2F0"/>
<path d="M26.5517 42.5L23.4483 37.8126H20.6897L23.7931 42.5H26.5517Z" fill="#B4E1FA"/>
<path d="M32.7272 28.4375C30.719 28.4375 29.0908 26.5931 29.0908 24.3182V20.625H36.3636V24.3182C36.3636 26.5931 34.7355 28.4375 32.7272 28.4375Z" fill="#E08F14"/>
<path d="M47.2728 28.4375C45.2645 28.4375 43.6364 26.5931 43.6364 24.3182V20.625H50.9092V24.3182C50.9091 26.5931 49.2811 28.4375 47.2728 28.4375Z" fill="#E08F14"/>
<path d="M18.1819 28.4375C16.1736 28.4375 14.5455 26.5931 14.5455 24.3182V20.625H21.8183V24.3182C21.8182 26.5931 20.1902 28.4375 18.1819 28.4375Z" fill="#E08F14"/>
<path d="M3.63641 28.4375C1.62813 28.4375 0 26.5931 0 24.3182V20.625H7.27282V24.3182C7.27282 26.5931 5.64469 28.4375 3.63641 28.4375Z" fill="#E08F14"/>
<path d="M61.8182 28.4375C59.8098 28.4375 58.1818 26.5931 58.1818 24.3182V20.625H65.4546V24.3182C65.4546 26.5931 63.8266 28.4375 61.8182 28.4375Z" fill="#E08F14"/>
<path d="M25.4545 28.4375C23.4463 28.4375 21.8181 26.5931 21.8181 24.3182V20.625H29.0909V24.3182C29.0909 26.5931 27.463 28.4375 25.4545 28.4375Z" fill="#C7CFE2"/>
<path d="M54.5456 28.4375C52.5373 28.4375 50.9092 26.5931 50.9092 24.3182V20.625H58.182V24.3182C58.182 26.5931 56.5538 28.4375 54.5456 28.4375Z" fill="#C7CFE2"/>
<path d="M76.3636 28.4375C74.3553 28.4375 72.7272 26.5931 72.7272 24.3182V20.625H80V24.3182C80 26.5931 78.3719 28.4375 76.3636 28.4375Z" fill="#E08F14"/>
<path d="M69.0909 28.4375C67.0826 28.4375 65.4545 26.5931 65.4545 24.3182V20.625H72.7273V24.3182C72.7271 26.5931 71.099 28.4375 69.0909 28.4375Z" fill="#C7CFE2"/>
<path d="M10.9091 28.4375C8.90085 28.4375 7.27271 26.5931 7.27271 24.3182V20.625H14.5455V24.3182C14.5455 26.5931 12.9174 28.4375 10.9091 28.4375Z" fill="#C7CFE2"/>
<path d="M40 28.4375C37.9917 28.4375 36.3636 26.5931 36.3636 24.3182V20.625H43.6364V24.3182C43.6364 26.5931 42.0083 28.4375 40 28.4375Z" fill="#C7CFE2"/>
<path d="M36.3635 20.625H29.0908L29.8432 0H36.6144L36.3635 20.625Z" fill="#FFA216"/>
<path d="M50.9091 20.625H43.6365L43.3855 0H50.1568L50.9091 20.625Z" fill="#FFA216"/>
<path d="M21.8182 20.625H14.5455L16.301 0H23.0721L21.8182 20.625Z" fill="#FFA216"/>
<path d="M7.27282 20.625H0L2.75859 0H9.52984L7.27282 20.625Z" fill="#FFA216"/>
<path d="M65.4545 20.625H58.1819L56.928 0H63.6991L65.4545 20.625Z" fill="#FFA216"/>
<path d="M29.0909 20.625H21.8181L23.072 0H29.8432L29.0909 20.625Z" fill="#EFF2FA"/>
<path d="M58.1819 20.625H50.9091L50.1567 0H56.928L58.1819 20.625Z" fill="#EFF2FA"/>
<path d="M80 20.8438H72.6737L70.4 0H77.2211L80 20.8438Z" fill="#FFA216"/>
<path d="M72.7273 20.625H65.4545L63.6991 0H70.4702L72.7273 20.625Z" fill="#EFF2FA"/>
<path d="M14.5455 20.625H7.27283L9.5299 0H16.3009L14.5455 20.625Z" fill="#EFF2FA"/>
<path d="M43.6364 20.625H36.3636L36.6146 0H43.3855L43.6364 20.625Z" fill="#EFF2FA"/>
<path d="M46.8966 39.375V67.5002H11.0346V39.375H46.8966ZM48.2759 36.2501H9.65512C8.89344 36.2501 8.27576 36.9498 8.27576 37.8126V69.0627C8.27576 69.9256 8.89344 70.6253 9.65512 70.6253H48.2758C49.0375 70.6253 49.6551 69.9256 49.6551 69.0627V37.8126C49.6551 36.9498 49.0377 36.2501 48.2759 36.2501Z" fill="#8F96AC"/>
<path d="M70.3449 36.2501H53.7932C53.0315 36.2501 52.4138 36.9498 52.4138 37.8126V76.8752H71.7241V37.8126C71.7241 36.9498 71.1066 36.2501 70.3449 36.2501ZM68.9656 67.5002H55.1725V39.375H68.9656V67.5002Z" fill="#8F96AC"/>
<path d="M79.3103 80H0.689687C0.30875 80 0 79.6502 0 79.2187V77.6562C0 77.2246 0.30875 76.8749 0.689687 76.8749H79.3103C79.6913 76.8749 80 77.2246 80 77.6562V79.2187C80 79.6502 79.6913 80 79.3103 80Z" fill="#8F96AC"/>
</svg>
